<svg xmlns="http://www.w3.org/2000/svg" width="400" height="400" class="cm-chessboard border-type-none default" role="img" viewBox="0 0 800 800"><g class="board"><rect width="400" height="400" class="border"/><rect x="0" y="350" width="50" height="50" class="square black" data-square="a1"/><rect x="50" y="350" width="50" height="50" class="square white" data-square="b1"/><rect x="100" y="350" width="50" height="50" class="square black" data-square="c1"/><rect x="150" y="350" width="50" height="50" class="square white" data-square="d1"/><rect x="200" y="350" width="50" height="50" class="square black" data-square="e1"/><rect x="250" y="350" width="50" height="50" class="square white" data-square="f1"/><rect x="300" y="350" width="50" height="50" class="square black" data-square="g1"/><rect x="350" y="350" width="50" height="50" class="square white" data-square="h1"/><rect x="0" y="300" width="50" height="50" class="square white" data-square="a2"/><rect x="50" y="300" width="50" height="50" class="square black" data-square="b2"/><rect x="100" y="300" width="50" height="50" class="square white" data-square="c2"/><rect x="150" y="300" width="50" height="50" class="square black" data-square="d2"/><rect x="200" y="300" width="50" height="50" class="square white" data-square="e2"/><rect x="250" y="300" width="50" height="50" class="square black" data-square="f2"/><rect x="300" y="300" width="50" height="50" class="square white" data-square="g2"/><rect x="350" y="300" width="50" height="50" class="square black" data-square="h2"/><rect x="0" y="250" width="50" height="50" class="square black" data-square="a3"/><rect x="50" y="250" width="50" height="50" class="square white" data-square="b3"/><rect x="100" y="250" width="50" height="50" class="square black" data-square="c3"/><rect x="150" y="250" width="50" height="50" class="square white" data-square="d3"/><rect x="200" y="250" width="50" height="50" class="square black" data-square="e3"/><rect x="250" y="250" width="50" height="50" class="square white" data-square="f3"/><rect x="300" y="250" width="50" height="50" class="square black" data-square="g3"/><rect x="350" y="250" width="50" height="50" class="square white" data-square="h3"/><rect x="0" y="200" width="50" height="50" class="square white" data-square="a4"/><rect x="50" y="200" width="50" height="50" class="square black" data-square="b4"/><rect x="100" y="200" width="50" height="50" class="square white" data-square="c4"/><rect x="150" y="200" width="50" height="50" class="square black" data-square="d4"/><rect x="200" y="200" width="50" height="50" class="square white" data-square="e4"/><rect x="250" y="200" width="50" height="50" class="square black" data-square="f4"/><rect x="300" y="200" width="50" height="50" class="square white" data-square="g4"/><rect x="350" y="200" width="50" height="50" class="square black" data-square="h4"/><rect x="0" y="150" width="50" height="50" class="square black" data-square="a5"/><rect x="50" y="150" width="50" height="50" class="square white" data-square="b5"/><rect x="100" y="150" width="50" height="50" class="square black" data-square="c5"/><rect x="150" y="150" width="50" height="50" class="square white" data-square="d5"/><rect x="200" y="150" width="50" height="50" class="square black" data-square="e5"/><rect x="250" y="150" width="50" height="50" class="square white" data-square="f5"/><rect x="300" y="150" width="50" height="50" class="square black" data-square="g5"/><rect x="350" y="150" width="50" height="50" class="square white" data-square="h5"/><rect x="0" y="100" width="50" height="50" class="square white" data-square="a6"/><rect x="50" y="100" width="50" height="50" class="square black" data-square="b6"/><rect x="100" y="100" width="50" height="50" class="square white" data-square="c6"/><rect x="150" y="100" width="50" height="50" class="square black" data-square="d6"/><rect x="200" y="100" width="50" height="50" class="square white" data-square="e6"/><rect x="250" y="100" width="50" height="50" class="square black" data-square="f6"/><rect x="300" y="100" width="50" height="50" class="square white" data-square="g6"/><rect x="350" y="100" width="50" height="50" class="square black" data-square="h6"/><rect x="0" y="50" width="50" height="50" class="square black" data-square="a7"/><rect x="50" y="50" width="50" height="50" class="square white" data-square="b7"/><rect x="100" y="50" width="50" height="50" class="square black" data-square="c7"/><rect x="150" y="50" width="50" height="50" class="square white" data-square="d7"/><rect x="200" y="50" width="50" height="50" class="square black" data-square="e7"/><rect x="250" y="50" width="50" height="50" class="square white" data-square="f7"/><rect x="300" y="50" width="50" height="50" class="square black" data-square="g7"/><rect x="350" y="50" width="50" height="50" class="square white" data-square="h7"/><rect x="0" y="0" width="50" height="50" class="square white" data-square="a8"/><rect x="50" y="0" width="50" height="50" class="square black" data-square="b8"/><rect x="100" y="0" width="50" height="50" class="square white" data-square="c8"/><rect x="150" y="0" width="50" height="50" class="square black" data-square="d8"/><rect x="200" y="0" width="50" height="50" class="square white" data-square="e8"/><rect x="250" y="0" width="50" height="50" class="square black" data-square="f8"/><rect x="300" y="0" width="50" height="50" class="square white" data-square="g8"/><rect x="350" y="0" width="50" height="50" class="square black" data-square="h8"/></g><g class="coordinates" aria-hidden="true"><text class="coordinate file black" x="40.625" y="395.625" style="font-size: 12.5px">a</text><text class="coordinate file white" x="90.625" y="395.625" style="font-size: 12.5px">b</text><text class="coordinate file black" x="140.625" y="395.625" style="font-size: 12.5px">c</text><text class="coordinate file white" x="190.625" y="395.625" style="font-size: 12.5px">d</text><text class="coordinate file black" x="240.625" y="395.625" style="font-size: 12.5px">e</text><text class="coordinate file white" x="290.625" y="395.625" style="font-size: 12.5px">f</text><text class="coordinate file black" x="340.625" y="395.625" style="font-size: 12.5px">g</text><text class="coordinate file white" x="390.625" y="395.625" style="font-size: 12.5px">h</text><text class="coordinate rank white" x="2.5" y="12.5" style="font-size: 12.5px">8</text><text class="coordinate rank black" x="2.5" y="62.5" style="font-size: 12.5px">7</text><text class="coordinate rank white" x="2.5" y="112.5" style="font-size: 12.5px">6</text><text class="coordinate rank black" x="2.5" y="162.5" style="font-size: 12.5px">5</text><text class="coordinate rank white" x="2.5" y="212.5" style="font-size: 12.5px">4</text><text class="coordinate rank black" x="2.5" y="262.5" style="font-size: 12.5px">3</text><text class="coordinate rank white" x="2.5" y="312.5" style="font-size: 12.5px">2</text><text class="coordinate rank black" x="2.5" y="362.5" style="font-size: 12.5px">1</text></g><g class="markers-layer"/><g class="pieces-layer"><g class="pieces"><g data-piece="wr" data-square="a1" transform="translate(0 350)"><use href="#wr" class="piece" xmlns:ns1="http://www.w3.org/1999/xlink" ns1:href="#wr" transform="translate(0 0) scale(1.25 1.25)"/></g><g data-piece="wb" data-square="c1" transform="translate(100 350)"><use href="#wb" class="piece" xmlns:ns2="http://www.w3.org/1999/xlink" ns2:href="#wb" transform="translate(0 0) scale(1.25 1.25)"/></g><g data-piece="wq" data-square="d1" transform="translate(150 350)"><use href="#wq" class="piece" xmlns:ns3="http://www.w3.org/1999/xlink" ns3:href="#wq" transform="translate(0 0) scale(1.25 1.25)"/></g><g data-piece="wk" data-square="e1" transform="translate(200 350)"><use href="#wk" class="piece" xmlns:ns4="http://www.w3.org/1999/xlink" ns4:href="#wk" transform="translate(0 0) scale(1.25 1.25)"/></g><g data-piece="wn" data-square="g1" transform="translate(300 350)"><use href="#wn" class="piece" xmlns:ns5="http://www.w3.org/1999/xlink" ns5:href="#wn" transform="translate(0 0) scale(1.25 1.25)"/></g><g data-piece="wr" data-square="h1" transform="translate(350 350)"><use href="#wr" class="piece" xmlns:ns6="http://www.w3.org/1999/xlink" ns6:href="#wr" transform="translate(0 0) scale(1.25 1.25)"/></g><g data-piece="wp" data-square="a2" transform="translate(0 300)"><use href="#wp" class="piece" xmlns:ns7="http://www.w3.org/1999/xlink" ns7:href="#wp" transform="translate(0 0) scale(1.25 1.25)"/></g><g data-piece="wp" data-square="b2" transform="translate(50 300)"><use href="#wp" class="piece" xmlns:ns8="http://www.w3.org/1999/xlink" ns8:href="#wp" transform="translate(0 0) scale(1.25 1.25)"/></g><g data-piece="wp" data-square="c2" transform="translate(100 300)"><use href="#wp" class="piece" xmlns:ns9="http://www.w3.org/1999/xlink" ns9:href="#wp" transform="translate(0 0) scale(1.25 1.25)"/></g><g data-piece="wp" data-square="d2" transform="translate(150 300)"><use href="#wp" class="piece" xmlns:ns10="http://www.w3.org/1999/xlink" ns10:href="#wp" transform="translate(0 0) scale(1.25 1.25)"/></g><g data-piece="wp" data-square="f2" transform="translate(250 300)"><use href="#wp" class="piece" xmlns:ns11="http://www.w3.org/1999/xlink" ns11:href="#wp" transform="translate(0 0) scale(1.25 1.25)"/></g><g data-piece="wp" data-square="g2" transform="translate(300 300)"><use href="#wp" class="piece" xmlns:ns12="http://www.w3.org/1999/xlink" ns12:href="#wp" transform="translate(0 0) scale(1.25 1.25)"/></g><g data-piece="wp" data-square="h2" transform="translate(350 300)"><use href="#wp" class="piece" xmlns:ns13="http://www.w3.org/1999/xlink" ns13:href="#wp" transform="translate(0 0) scale(1.25 1.25)"/></g><g data-piece="wn" data-square="c3" transform="translate(100 250)"><use href="#wn" class="piece" xmlns:ns14="http://www.w3.org/1999/xlink" ns14:href="#wn" transform="translate(0 0) scale(1.25 1.25)"/></g><g data-piece="wb" data-square="c4" transform="translate(100 200)"><use href="#wb" class="piece" xmlns:ns15="http://www.w3.org/1999/xlink" ns15:href="#wb" transform="translate(0 0) scale(1.25 1.25)"/></g><g data-piece="wp" data-square="e4" transform="translate(200 200)"><use href="#wp" class="piece" xmlns:ns16="http://www.w3.org/1999/xlink" ns16:href="#wp" transform="translate(0 0) scale(1.25 1.25)"/></g><g data-piece="bb" data-square="c5" transform="translate(100 150)"><use href="#bb" class="piece" xmlns:ns17="http://www.w3.org/1999/xlink" ns17:href="#bb" transform="translate(0 0) scale(1.25 1.25)"/></g><g data-piece="bp" data-square="e5" transform="translate(200 150)"><use href="#bp" class="piece" xmlns:ns18="http://www.w3.org/1999/xlink" ns18:href="#bp" transform="translate(0 0) scale(1.25 1.25)"/></g><g data-piece="bn" data-square="c6" transform="translate(100 100)"><use href="#bn" class="piece" xmlns:ns19="http://www.w3.org/1999/xlink" ns19:href="#bn" transform="translate(0 0) scale(1.25 1.25)"/></g><g data-piece="bp" data-square="a7" transform="translate(0 50)"><use href="#bp" class="piece" xmlns:ns20="http://www.w3.org/1999/xlink" ns20:href="#bp" transform="translate(0 0) scale(1.25 1.25)"/></g><g data-piece="bp" data-square="b7" transform="translate(50 50)"><use href="#bp" class="piece" xmlns:ns21="http://www.w3.org/1999/xlink" ns21:href="#bp" transform="translate(0 0) scale(1.25 1.25)"/></g><g data-piece="bp" data-square="c7" transform="translate(100 50)"><use href="#bp" class="piece" xmlns:ns22="http://www.w3.org/1999/xlink" ns22:href="#bp" transform="translate(0 0) scale(1.25 1.25)"/></g><g data-piece="bp" data-square="d7" transform="translate(150 50)"><use href="#bp" class="piece" xmlns:ns23="http://www.w3.org/1999/xlink" ns23:href="#bp" transform="translate(0 0) scale(1.25 1.25)"/></g><g data-piece="bp" data-square="f7" transform="translate(250 50)"><use href="#bp" class="piece" xmlns:ns24="http://www.w3.org/1999/xlink" ns24:href="#bp" transform="translate(0 0) scale(1.25 1.25)"/></g><g data-piece="bp" data-square="g7" transform="translate(300 50)"><use href="#bp" class="piece" xmlns:ns25="http://www.w3.org/1999/xlink" ns25:href="#bp" transform="translate(0 0) scale(1.25 1.25)"/></g><g data-piece="bp" data-square="h7" transform="translate(350 50)"><use href="#bp" class="piece" xmlns:ns26="http://www.w3.org/1999/xlink" ns26:href="#bp" transform="translate(0 0) scale(1.25 1.25)"/></g><g data-piece="br" data-square="a8" transform="translate(0 0)"><use href="#br" class="piece" xmlns:ns27="http://www.w3.org/1999/xlink" ns27:href="#br" transform="translate(0 0) scale(1.25 1.25)"/></g><g data-piece="bb" data-square="c8" transform="translate(100 0)"><use href="#bb" class="piece" xmlns:ns28="http://www.w3.org/1999/xlink" ns28:href="#bb" transform="translate(0 0) scale(1.25 1.25)"/></g><g data-piece="bq" data-square="d8" transform="translate(150 0)"><use href="#bq" class="piece" xmlns:ns29="http://www.w3.org/1999/xlink" ns29:href="#bq" transform="translate(0 0) scale(1.25 1.25)"/></g><g data-piece="bk" data-square="e8" transform="translate(200 0)"><use href="#bk" class="piece" xmlns:ns30="http://www.w3.org/1999/xlink" ns30:href="#bk" transform="translate(0 0) scale(1.25 1.25)"/></g><g data-piece="bn" data-square="g8" transform="translate(300 0)"><use href="#bn" class="piece" xmlns:ns31="http://www.w3.org/1999/xlink" ns31:href="#bn" transform="translate(0 0) scale(1.25 1.25)"/></g><g data-piece="br" data-square="h8" transform="translate(350 0)"><use href="#br" class="piece" xmlns:ns32="http://www.w3.org/1999/xlink" ns32:href="#br" transform="translate(0 0) scale(1.25 1.25)"/></g></g></g><g class="markers-top-layer"/><g class="interactive-top-layer"/></svg>